<?xml version="1.0" encoding="utf-8"?>
<!-- Generator: Adobe Illustrator 19.2.1, SVG Export Plug-In . SVG Version: 6.00 Build 0)  -->
<svg version="1.1" id="Lag_1" xmlns="http://www.w3.org/2000/svg" xmlns:xlink="http://www.w3.org/1999/xlink" x="0px" y="0px"
	 viewBox="0 0 1113.3 324.2" style="enable-background:new 0 0 1113.3 324.2;" xml:space="preserve">
<style type="text/css">
	.st0{clip-path:url(#SVGID_2_);}
	.st1{fill:#507838;}
	.st2{fill:#91A945;}
	.st3{fill:#41773B;}
	.st4{fill:#41773C;}
	.st5{fill:#644017;}
	.st6{fill:#FFFFFF;}
	.st7{fill:#D2C351;}
	.st8{fill:#222220;}
	.st9{fill:#A82A31;}
</style>
<g>
	<defs>
		<rect id="SVGID_1_" x="-390.3" y="53.2" width="1890" height="330"/>
	</defs>
	<clipPath id="SVGID_2_">
		<use xlink:href="#SVGID_1_"  style="overflow:visible;"/>
	</clipPath>
	<g class="st0">
		<path class="st1" d="M981.4,267.7c11.2,0,22.3-1.7,33.4-1.5c2.8,0,5.7-0.5,8.5-0.8c3.8,0,7.6,0.1,11.3-0.8
			c11.2-1.6,22.4-0.7,33.6-0.2c2.5,0.1,5.1,0.1,7.6,0.1c4.4,0.1,8.7,0.9,13.1,0c5.2,1,10.3-0.2,15.5-0.5c3.1-0.1,6.2-0.3,9.3-0.1
			c0,19.2,0,38.4,0.1,57.6c0,2.2-0.4,2.7-2.7,2.7c-170.4-0.1-340.9-0.1-511.3-0.1c-199.9,0-399.7,0-599.6,0.1
			c-2.2,0-2.7-0.5-2.7-2.7c0.1-14.7,0.1-29.3,0.1-44c0.4,0.1,0.8,0.1,1.1,0.3c9.7,5.4,20.4,6.7,31.3,6.7c31.4,0.2,62.8,0.2,94.1-0.5
			c4.8-0.1,9.7,0.1,14.5,0c11-0.3,22-0.8,32.9-1.2c10.3-0.3,20.6-0.8,30.9-1.2c10.6-0.4,21.2-0.7,31.8-1.2c7.3-0.4,14.6-0.4,22-0.6
			c10.5-0.3,21-0.8,31.5-1.2c10.8-0.4,21.6-0.7,32.3-1.2c9-0.5,18.1-0.4,27.1-0.7c2.5-0.1,5-0.2,7.6-0.2c8.1-0.1,16.3-0.6,24.4-1
			c13-0.6,26.1-1,39.1-1.7c14.1-0.7,28.3,0.1,42.5-0.5c15-0.6,30-0.4,45,0.1c6.3,0.2,12.6,0.3,18.8,0.3c11.4,0.1,22.8,0.4,34.2-0.6
			c11.5-1.1,23-2.1,34.6-2.3c1.9,0,3.7,0.1,5.6,0c11.1-0.7,22.2-1.5,33.3-2.3c5.6-0.4,11.2-0.7,16.7-1.4c8.7-1.1,17.2-0.6,25.7,0.6
			c5.8,0.8,11.6,1.7,17.5,1.9c8,0.3,16.1,0,24.1,0.7c5.1,0.4,10.2,0.6,15.2,1.4c7.5,1.2,15,1.6,22.5,2c2.9,0.2,5.8,0.3,8.7,0.3
			c4.9,0,9.8,0.8,14.6,0.9c11.4,0.2,22.8-0.4,34.1,0.2c7.5,0.4,15.1,0.3,22.6,0.3c16.5,0,33,1,49.5-1c5.5-0.7,11.1-1,16.7-1.3
			c8.1-0.5,16.2-1.9,24.3-1.7c5.8,0.1,11.6,0.4,17.4,0.3c10.2-0.2,20.3-1.3,30.4-2.1c1.2,0,2.6,0.3,3.7-0.1
			C977.7,269.1,980.3,270.3,981.4,267.7z"/>
		<path class="st2" d="M972.2,269.9c-10.1,0.8-20.3,1.9-30.5,2.1c-5.8,0.1-11.6-0.2-17.4-0.3c-8.2-0.2-16.2,1.2-24.3,1.7
			c-5.6,0.3-11.1,0.6-16.7,1.3c-16.5,2-33,1-49.5,1c-7.5,0-15.1,0.1-22.6-0.3c-11.3-0.6-22.7-0.1-34.1-0.2
			c-4.9-0.1-9.8-0.8-14.6-0.9c-2.9,0-5.8-0.2-8.7-0.3c-7.5-0.4-15-0.8-22.5-2c-5-0.8-10.1-1-15.2-1.4c-8-0.7-16.1-0.4-24.1-0.7
			c-5.8-0.2-11.7-1.1-17.5-1.9c-8.6-1.2-17-1.7-25.7-0.6c-5.5,0.7-11.1,1-16.7,1.4c-11.1,0.8-22.2,1.6-33.3,2.3
			c-1.9,0.1-3.7,0-5.6,0c-11.6,0.2-23.1,1.2-34.6,2.3c-11.4,1.1-22.8,0.8-34.2,0.6c-6.3-0.1-12.6-0.1-18.8-0.3
			c-15-0.5-30.1-0.7-45-0.1c-14.2,0.6-28.3-0.2-42.5,0.5c-13,0.7-26.1,1.1-39.1,1.7c-8.1,0.4-16.3,0.9-24.4,1c-2.5,0-5,0.1-7.6,0.2
			c-9,0.3-18.1,0.2-27.1,0.7c-10.8,0.5-21.6,0.8-32.3,1.2c-10.5,0.4-21,0.9-31.5,1.2c-7.3,0.2-14.6,0.2-22,0.6
			c-10.6,0.5-21.2,0.8-31.8,1.2c-10.3,0.4-20.6,0.8-30.9,1.2c-11,0.4-22,0.9-32.9,1.2c-4.9,0.1-9.7-0.1-14.5,0
			c-31.4,0.6-62.8,0.7-94.1,0.5c-10.9-0.1-21.6-1.3-31.3-6.7c-0.3-0.2-0.8-0.2-1.1-0.3c0-6.1,0-12.2,0-18.3
			c3.9,0.1,7.9,0.2,11.8,0.4c13.4,0.9,26.1-2.6,38.9-6c26.1-7.1,52.2-13.9,78.7-19.4c13.5-2.8,27.3-3.7,41-3.8
			c31.4-0.2,62.8-0.7,94.2,0.1c37,0.9,74.1,2.3,110.9,7.3c31.9,4.3,63.9,7.3,95.8,10.7c11.7,1.3,23.4,1.7,35.1,1.8
			c16.5,0.1,33.1,0.1,49.6,0.1c15,0,29.8-1.6,44.5-4.9c12.6-2.9,25.5-3.3,38.4-3.8c19.3-0.8,38.5-1.3,57.8-2
			c9.6-0.4,19.2-1.1,28.9-1.6c2.3-0.2,4.7,0.5,6.9-0.6c6,0.3,12-0.1,18-0.5c16.5-0.9,33-1.1,49.5-1c2,0,3-0.4,2.8-2.5
			c0.4,1.8,1.4,2.7,3.4,2.4c1.3-0.2,2.7-0.1,4.1-0.1c5.4,0.1,10.8,0.3,16.2,0.3c8.6,0,17.2,1.7,25.8,2.1c2,0.4,3.9,0.8,5.9,1.1
			c0.9,0.2,1.7,0,2-1.1c0.5,1.1,1.3,1.5,2.5,1.7c17.6,2.2,35.1,4.6,52.5,8.3c0.9,0.2,1.7,0.3,2.6,0c3.6,2,7.7,2.4,11.7,3
			c7.1,1.9,14.1,3.8,21.2,5.7c6.3,1.7,12.5,4,18.6,6.3c2.3,0.9,3.4,3.2,5.5,4.2C972.2,268.1,972.2,269,972.2,269.9z"/>
		<path class="st3" d="M1078.3,228.5c-6.6-1-11.3-4.9-14-10.6c-5-10.8-8.7-22.3-9-34.3c-0.3-11.8,5.6-21.1,14.7-28.2
			c4.6-3.6,10.3-3.6,15.8-2.6c1.7,0.3,3.1,1.2,4.1,2.6c3.4,4.5,6.7,9,10.1,13.4c8.2,10.5,6.7,36.6-0.6,46.5
			c-3.6,4.9-8,9.2-13.3,12.3c-0.7-8.8-0.7-17.5,5.1-25c1.1-1.5,1.6-3.5,2.4-5.3c-4.4,3.1-7.5,7.2-10,12.1c0-2.3,0.1-4.3,0.3-6.4
			c0.4-4.5,0.7-9-0.3-13.5c-0.2-0.8-0.5-1.6-1.5-1.5c-1.1,0-1.5,0.9-1.4,1.8c0.1,2.3-0.2,4.7,0.3,7.1c0.8,4.6-0.6,9.2-0.8,13.8
			c-3.8-6-8.8-10.9-12.2-17.1c0.4,3.6,0,7.4,3,10.2c1.1,1.1,2.1,2.3,3,3.6c1.3,2,3.6,3.6,3.8,6.1
			C1077.9,218.5,1078.7,223.5,1078.3,228.5z"/>
		<path class="st3" d="M972.6,222.1c-3.7-1.5-7.3-3.4-10.9-5.3c-4.2-2.3-6.7-5.8-7.3-10.5c-1.4-10.2-1.4-20.4,0.1-30.6
			c1.1-7.7,5.1-14,9.8-19.8c3.3-4,12-5.9,16.9-4c4.7,1.8,8.3,5.2,12.5,7.8c1.1,0.7,1.9,2.1,2.3,3.3c2,5.8,4.5,11.5,4.6,17.9
			c0.2,9.4,0.3,18.9-1.2,28.2c-1.7,10.6-7.7,15.6-19.1,15.3c0-2.5,0.1-4.9-0.1-7.4c-0.3-3.5,1.2-5.9,3.7-8.1
			c2.9-2.6,5.6-5.5,8.4-8.2c1.2-1.2,0.6-2.2-0.3-3c-1-0.9-1.5,0.2-2.1,0.8c-3.6,3.6-7.5,7-11.2,11.4c-0.5-2.2-0.5-3.8-0.2-5.4
			c1-5,0.4-10-0.5-14.9c-0.2-1.1,0.1-3-1.8-2.8c-1.8,0.2-1.3,1.9-1.4,3.1c0,4.5,0,9.1,0,13.6c0,1.4,0,2.9-1.1,4.2
			c-1.4-1.3-2.3-2.8-3.1-4.4c-2-4.1-4.8-7.6-9.1-9.6c-0.5-0.3-1-0.8-1.6-0.3c-0.7,0.6-0.3,1.2,0.1,1.8c1.4,2.5,3.2,4.7,5.1,6.8
			c2.3,2.5,5.3,4.6,5.9,8.2C971.9,214.1,972.1,218.1,972.6,222.1z"/>
		<path class="st4" d="M847.9,220.4c-8.1-1.3-12.3-6.7-14.6-14.1c-3.9-13-3.2-25.8,1.3-38.5c1.9-5.3,4.9-10,10.3-12.3
			c7.3-3,14.8-2.3,21.7,1c4.1,2,6.2,6.5,8.5,10.3c6.2,10.1,8.6,21.1,5.9,32.7c-1.3,5.4-4.5,10-7.1,14.8c-0.5,0.9-1.3,1.9-2.2,2.3
			c-4.7,1.9-9,5-14.4,4.6c0-2.9,0.1-5.7,0-8.6c0-1.5,0.5-2.6,1.4-3.7c2.8-3.3,5.4-6.7,8.1-10.1c0.7-0.9,2-2,0.8-3.1
			c-1.3-1.2-2.3,0.2-3.2,1c-2.8,2.7-5.1,5.7-7,9c-0.4,0.7-0.8,1.5-1.8,1.1c-0.8-0.3-0.6-1.1-0.6-1.8c0-0.6,0-1.2,0.2-1.8
			c1.1-3.6,1-7.4,1-11.1c0-1.3,0.2-2.8-1.7-2.8c-1.9,0-1.8,1.4-1.8,2.7c-0.1,4.9,0.3,9.8-0.6,14.7c-0.1,0.8,0.1,1.7-1,1.9
			c-1,0.2-1.9,0-2.7-0.9c-0.5-0.6-0.5-1.3-0.6-1.9c-0.9-3.8-1.2-7.7-3.2-11.2c-1.3-2.2-2.1-1.3-2.7,0.2c-1,2.1-0.6,4.2,0.5,6.2
			C845.9,207.3,848.1,213.5,847.9,220.4z"/>
		<path class="st4" d="M799,218.4c-5.3-0.5-10.5-1.4-14.8-5.1c-2-1.7-3.5-3.6-4.9-5.8c-5.6-9.3-7.5-19.5-6.8-30.2
			c0.3-5.3,1.8-10.3,4.7-14.7c2.8-4.3,6.8-6.9,12.2-7.2c7-0.4,14-0.4,19.8,3.9c8.9,6.6,15.3,14.8,15.6,26.6c0.1,6.5,0,12.9-2.2,19.2
			c-2.7,7.4-7.1,12.8-15.4,13.9c-0.6-7.5,1.2-14.1,6.7-19.5c1.5-1.5,2.7-3.3,4.1-4.9c0.7-0.8,1.3-1.5,0.2-2.5
			c-0.9-0.8-1.8-0.7-2.6,0.2c-1.8,2.2-4,4-5.4,6.6c-1.2,2.2-2.5,4.2-4.6,5.9c-0.6-2.1-0.8-3.9-0.9-5.7c-0.3-3.6-0.8-7.2-1.3-10.8
			c-0.2-1.2-0.6-2.2-2.2-2.1c-1.8,0.1-1.7,1.3-1.7,2.5c0,3.8,0.1,7.7,0,11.5c0,1.2,0.7,3.1-0.7,3.4c-1.6,0.3-2.7-1.3-3.5-2.7
			c-0.3-0.5-0.4-1.1-0.6-1.7c-0.9-3-2.8-5.3-4.5-7.8c-0.5-0.6-1-1.2-2-0.7c-0.8,0.4-1.2,1-1.1,1.9c0,1-0.1,2,0.5,2.9
			c2.5,3.7,4.2,7.9,6.8,11.6C797,210.4,798.3,214.2,799,218.4z"/>
		<path class="st4" d="M917.6,219.2c-8.4-1.1-14.1-6-18.4-12.9c-0.8-1.2-1.7-2.6-1.9-4c-1.9-10.8-3.4-21.5,0.4-32.3
			c2.6-7.4,7.8-12.1,14.4-15.6c2.1-1.1,4.3-1.1,6.5,0c4,1.9,7.9,4.1,12,5.6c6,2.2,8.6,7,10.6,12.5c1.1,3,2.1,5.9,3.2,8.9
			c1.4,3.9,1.4,7.9,0.1,11.9c-2.6,7.7-6.5,14.7-10.7,21.6c-1.8,2.9-4.8,3.5-7.8,4.1c0-0.9-0.2-1.8,0.1-2.6c0.9-2.7-0.5-5.9,1.4-8.2
			c3.2-4.1,6.7-7.9,10-11.9c0.5-0.6,1.9-1.2,1.1-2.1c-1-1-1.8,0.1-2.6,0.9c-3,2.8-5.8,5.8-8.2,9.1c-0.5,0.8-1.3,2-2.2,1.7
			c-1.2-0.3-0.6-1.7-0.6-2.6c0-5,0-10,0-15c0-1,0-2-1.4-2.1c-1.4,0-1.6,0.9-1.5,2c0,1.4,0.2,2.7,0.3,4.1c0.3,3.7,1,7.4-0.3,11.1
			c-0.7,1.9-1.6,2.4-3.4,0.6c-3.2-3.4-4.4-8.1-7.4-11.6c-0.6-0.7-0.4-2.9-2.2-1.9c-1.6,0.9-1.7,2.5-0.5,4c0.6,0.7,1.1,1.4,1.6,2.1
			C914.9,203.2,918.5,210.4,917.6,219.2z"/>
		<path class="st4" d="M1024.6,219.1c-4.2-2.7-8-5.9-11.8-9.2c-1.8-1.5-2.4-3.8-2.9-6c-0.9-4.1-2.1-8.2-3.6-12.1
			c-4.4-11.7,2.7-28.4,14.1-33.5c0.3-0.1,0.5-0.3,0.8-0.3c6.6-2.2,18.3,2.3,21.8,8.2c2.5,4.2,3.9,8.6,4.2,13.4
			c0.7,9,1.3,18.1-1.5,26.9c-1.6,5.2-5.3,8.8-8.9,12.6c-0.2,0.3-0.6,0.5-1,0.1c0.1-2-0.1-3.9,0.3-5.9c1-6.3,2.5-12.5,6-18
			c0.3-0.5,1.2-1.4,0.1-2c-0.7-0.4-1.3,0-1.7,0.7c-2.3,3.5-5,6.8-6.4,10.8c-0.3,1-0.3,2.5-1.7,2.3c-1.2-0.2-0.7-1.6-0.7-2.5
			c0-6.5,0-13,0-19.5c0-1.2,0-2.5-1.7-2.5c-1.7,0-1.7,1.2-1.8,2.4c-0.8,6.1-0.5,12.2-0.6,18.2c0,1,0.6,2.6-0.4,3
			c-1.3,0.6-1.7-1.2-2.5-2c-3-3-4.7-6.9-7.3-10.3c-0.5-0.7-1.3-1.9-2.4-1.1c-0.9,0.6-0.6,1.8-0.1,2.7c0.9,1.5,1.7,3.1,2.8,4.5
			C1022.1,205.7,1023.8,212.2,1024.6,219.1z"/>
		<path class="st4" d="M721.4,210c-4.5-3.3-9.2-6.2-12.8-10.7c-7.5-9.4-7.7-20.7,2.3-29.2c3.8-3.2,7.5-7.4,13.2-7.1
			c16.8,0.8,29.8,10.2,27.5,29.5c-0.7,5.8-1.6,11.5-5.6,16.2c-3.9,4.5-9.1,6.2-14.7,7.1c1.8-7.8,1.9-16.2,8.2-22.4
			c0.3-0.3,0.5-0.6,0.7-1c0.4-0.9,0.9-2-0.1-2.6c-1-0.6-1.6,0.4-2.1,1.1c-2.4,3.1-4.7,6.3-7,9.4c-0.4,0.6-0.3,1.8-1.4,1.5
			c-1-0.3-0.7-1.3-0.7-2c-0.1-3.8-1.5-7.3-1.8-11c-0.1-1.3-1.1-2-2.2-1.9c-1.6,0.1-1.3,1.5-1.2,2.5c0.2,1.5,0.7,3.1,0.9,4.6
			c0.4,2.7,1.4,5.4,0.4,8.6c-2.1-2.6-3.1-5.2-3.7-8c-0.4-1.8-1.4-3-2.8-3.9c-1.4-1-2.3-0.7-2.5,1.2c-0.4,3.7,1.7,6.7,3.5,9.5
			C720.9,204.1,721.4,206.9,721.4,210z"/>
		<path class="st5" d="M1024.6,219.1c-0.7-6.9-2.5-13.4-6.9-19c-1.1-1.4-1.9-3-2.8-4.5c-0.5-0.9-0.8-2.1,0.1-2.7
			c1.1-0.8,1.8,0.4,2.4,1.1c2.5,3.4,4.2,7.3,7.3,10.3c0.8,0.8,1.2,2.5,2.5,2c1-0.4,0.4-2,0.4-3c0.1-6.1-0.3-12.2,0.6-18.2
			c0.2-1.2,0.2-2.5,1.8-2.4c1.7,0,1.7,1.3,1.7,2.5c0,6.5,0,13,0,19.5c0,0.9-0.5,2.4,0.7,2.5c1.4,0.2,1.3-1.4,1.7-2.3
			c1.4-4.1,4.1-7.3,6.4-10.8c0.4-0.7,1-1,1.7-0.7c1.1,0.6,0.3,1.4-0.1,2c-3.5,5.5-5,11.7-6,18c-0.3,2-0.2,3.9-0.3,5.9
			c-0.5,0.3-0.5,0.8-0.6,1.3c-0.8,13.6-3.1,27.1-0.8,40.7c0.2,1.1,0.1,2.3,0.2,3.5c-3.7,0.8-7.5,0.8-11.3,0.8
			c-0.9-3.4-0.1-6.8,0.3-10.2C1025.3,243.2,1026,231.1,1024.6,219.1z"/>
		<path class="st5" d="M972.6,222.1c-0.4-4-0.6-8-1.3-11.9c-0.6-3.6-3.6-5.7-5.9-8.2c-1.9-2.1-3.7-4.3-5.1-6.8
			c-0.4-0.6-0.8-1.3-0.1-1.8c0.6-0.4,1.1,0.1,1.6,0.3c4.3,2,7,5.5,9.1,9.6c0.8,1.6,1.7,3,3.1,4.4c1-1.4,1.1-2.8,1.1-4.2
			c0-4.5,0-9.1,0-13.6c0-1.2-0.5-2.9,1.4-3.1c1.9-0.2,1.6,1.7,1.8,2.8c0.9,4.9,1.5,9.9,0.5,14.9c-0.3,1.6-0.3,3.2,0.2,5.4
			c3.6-4.4,7.6-7.7,11.2-11.4c0.6-0.6,1.1-1.7,2.1-0.8c0.9,0.8,1.5,1.8,0.3,3c-2.8,2.7-5.5,5.7-8.4,8.2c-2.5,2.2-4.1,4.6-3.7,8.1
			c0.2,2.4,0.1,4.9,0.1,7.4c-1.3,7.8,0.1,15.7,0.1,23.5c0,5.8,0.6,11.6,0.5,17.3c0,0.8,0,1.6,0.5,2.3c-1.1,2.6-3.7,1.5-5.5,2.1
			c-1.1,0.4-2.5,0.1-3.7,0.1c0-0.9,0-1.8,0-2.7c0.8-3.6,0.5-7.3,0.3-10.8c-0.7-9.5,0.8-19,0.6-28.5C972.9,226,972.7,224,972.6,222.1
			z"/>
		<path class="st5" d="M1078.3,228.5c0.4-5-0.4-10-0.6-15c-0.1-2.5-2.5-4.1-3.8-6.1c-0.8-1.3-1.8-2.6-3-3.6c-2.9-2.8-2.6-6.5-3-10.2
			c3.4,6.1,8.4,11.1,12.2,17.1c0.2-4.6,1.6-9.2,0.8-13.8c-0.4-2.4-0.2-4.7-0.3-7.1c0-1,0.3-1.8,1.4-1.8c1,0,1.3,0.7,1.5,1.5
			c1,4.5,0.7,9,0.3,13.5c-0.2,2-0.3,4-0.3,6.4c2.5-4.9,5.5-9,10-12.1c-0.8,1.8-1.3,3.8-2.4,5.3c-5.7,7.6-5.7,16.2-5.1,25
			c-0.8,6.2-0.1,12.3,0.8,18.4c1,6.1,1.5,12.3,2,18.5c-4.4,0.9-8.7,0.1-13.1,0C1076.1,252.5,1077.9,240.5,1078.3,228.5z"/>
		<path class="st5" d="M917.6,219.2c1-8.8-2.7-16-7.6-22.8c-0.5-0.7-1-1.4-1.6-2.1c-1.2-1.5-1.2-3.1,0.5-4c1.8-1,1.5,1.2,2.2,1.9
			c3,3.5,4.1,8.2,7.4,11.6c1.7,1.8,2.7,1.4,3.4-0.6c1.3-3.6,0.6-7.4,0.3-11.1c-0.1-1.4-0.3-2.7-0.3-4.1c0-1.1,0.1-2,1.5-2
			c1.5,0,1.4,1.1,1.4,2.1c0,5,0,10,0,15c0,0.9-0.6,2.3,0.6,2.6c1,0.3,1.7-0.9,2.2-1.7c2.4-3.3,5.2-6.3,8.2-9.1
			c0.8-0.8,1.7-1.9,2.6-0.9c0.8,0.8-0.6,1.4-1.1,2.1c-3.3,4-6.8,7.8-10,11.9c-1.9,2.4-0.5,5.5-1.4,8.2c-0.3,0.8-0.1,1.8-0.1,2.6
			c-1.4,10.7-2.3,21.5,0.9,32.1c-4-0.6-8.1-1-11.7-3c1.4-8.2,0.8-16.5,1.9-24.7C917.2,221.9,917.4,220.5,917.6,219.2z"/>
		<path class="st5" d="M799,218.4c-0.7-4.2-2-8-4.5-11.6c-2.5-3.6-4.3-7.9-6.8-11.6c-0.6-0.9-0.5-1.9-0.5-2.9c0-0.9,0.3-1.5,1.1-1.9
			c0.9-0.5,1.5,0.1,2,0.7c1.7,2.5,3.7,4.8,4.5,7.8c0.2,0.6,0.3,1.1,0.6,1.7c0.8,1.4,1.9,3,3.5,2.7c1.4-0.3,0.6-2.2,0.7-3.4
			c0.1-3.8,0-7.7,0-11.5c0-1.2-0.1-2.4,1.7-2.5c1.7-0.1,2.1,1,2.2,2.1c0.5,3.6,1.1,7.2,1.3,10.8c0.1,1.9,0.3,3.7,0.9,5.7
			c2-1.7,3.4-3.8,4.6-5.9c1.4-2.6,3.5-4.4,5.4-6.6c0.8-0.9,1.6-1,2.6-0.2c1.1,0.9,0.6,1.6-0.2,2.5c-1.4,1.6-2.6,3.4-4.1,4.9
			c-5.4,5.4-7.3,12.1-6.7,19.5c-0.6,5.6,0.2,11.2,0.5,16.7c-1.4,0-2.7-0.1-4.1,0.1c-2,0.3-3-0.6-3.4-2.4
			C799.9,228.4,799.4,223.4,799,218.4z"/>
		<path class="st5" d="M721.4,210c0-3.1-0.5-5.9-2.2-8.6c-1.8-2.8-3.9-5.7-3.5-9.5c0.2-1.9,1.1-2.2,2.5-1.2c1.4,0.9,2.4,2.1,2.8,3.9
			c0.6,2.8,1.6,5.4,3.7,8c1.1-3.2,0-5.9-0.4-8.6c-0.2-1.5-0.7-3.1-0.9-4.6c-0.1-1-0.4-2.4,1.2-2.5c1.1-0.1,2.1,0.6,2.2,1.9
			c0.3,3.7,1.8,7.2,1.8,11c0,0.7-0.3,1.8,0.7,2c1.1,0.3,1-1,1.4-1.5c2.3-3.1,4.7-6.3,7-9.4c0.5-0.7,1.2-1.7,2.1-1.1
			c1,0.6,0.6,1.7,0.1,2.6c-0.2,0.3-0.4,0.7-0.7,1c-6.3,6.2-6.4,14.6-8.2,22.4c-0.7,7.2-2,14.3-1.2,21.5c-2.2,1.2-4.6,0.4-6.9,0.6
			c0.1-8.1-0.4-16.2-1-24.3C722.1,212.4,721.7,211.2,721.4,210z"/>
		<path class="st5" d="M847.9,220.4c0.2-6.9-2-13.1-5.4-18.9c-1.2-2-1.5-4.1-0.5-6.2c0.7-1.5,1.4-2.4,2.7-0.2
			c2.1,3.5,2.4,7.4,3.2,11.2c0.2,0.7,0.1,1.4,0.6,1.9c0.7,0.8,1.6,1.1,2.7,0.9c1-0.2,0.8-1.1,1-1.9c0.9-4.9,0.5-9.8,0.6-14.7
			c0-1.3-0.1-2.8,1.8-2.7c1.9,0,1.7,1.5,1.7,2.8c0,3.7,0.2,7.5-1,11.1c-0.2,0.5-0.2,1.2-0.2,1.8c0,0.7-0.2,1.5,0.6,1.8
			c1,0.3,1.4-0.4,1.8-1.1c1.9-3.3,4.3-6.3,7-9c0.9-0.9,1.9-2.3,3.2-1c1.1,1.1-0.2,2.2-0.8,3.1c-2.6,3.4-5.3,6.8-8.1,10.1
			c-1,1.1-1.5,2.2-1.4,3.7c0.1,2.9,0,5.7,0,8.6c0,0-0.1,0.1-0.1,0.1c-0.4,0.2-0.5,0.6-0.3,1c0.2,5.2,0.4,10.4,0.6,15.6
			c-0.3,1.1-1.1,1.3-2,1.1c-2-0.4-3.9-0.8-5.9-1.1C849.1,232.1,848.5,226.2,847.9,220.4z"/>
		<path class="st4" d="M857,222.4c-0.2-0.4-0.1-0.7,0.3-1C857.2,221.8,857.1,222.1,857,222.4z"/>
	</g>
</g>
<rect x="92.8" y="82.6" class="st6" width="9.4" height="202"/>
<circle class="st7" cx="97.5" cy="76.2" r="6.7"/>
<g>
	<g>
		<path class="st8" d="M104.3,159.6c0.2-5.6,3.8-9.8,4.6-15.3c1.2-8.1,0.5-17,0.6-25.2c0-6.7,0.4-13.3-0.8-19.9
			c-1-5.3-1.8-11.7-4.6-16.5c-0.8-1.4-3-0.1-2.2,1.3c2.7,4.6,3.6,11.4,4.5,16.6c1.3,7.3,0.6,15,0.6,22.3c0,7.2,1,15.8-0.9,22.8
			c-1.3,4.9-4,8.6-4.2,13.9C101.7,161.2,104.2,161.2,104.3,159.6L104.3,159.6z"/>
	</g>
</g>
<g>
	<polygon class="st9" points="104.4,84.9 148.5,92.1 166.4,95 190.9,118.8 187.9,183.4 150.5,161.4 103.7,159.9 118.9,150.7 
		114,94.3 	"/>
	<path class="st6" d="M157.6,93.5l-7.6-1.2c0,0-1,20.5-1.3,23.8c-0.3,3.3,0.9,3.6-1.1,5.3c-2,1.7-0.2,2.7-5.6,1.5
		c-5.4-1.2-6.6-1.7-11.3-1.7c-4.7,0-14.4-0.5-14.4-0.5l0.7,7.8c0,0,31,1.9,32,3.2c1.1,1.4,0.5,19.8,0.5,21.9s-0.5,7.7-0.5,7.7
		s2.2,0.3,3.5,1.2s2.8,1.7,2.8,1.7s0.3-18,0.6-22.7c0.3-4.7-0.3-6.9-0.2-8c0.2-1.1,0.8-1.1,1.8-1.1c1.1,0,9.8,0.8,13,2.9
		s10.9,3.5,14,4.4c3.2,0.9,5.2,1.9,5.2,1.9l0.4-7.9c0,0-7-2.2-10.1-3.2s-11.8-4.2-15.5-4.7c-3.8-0.5-7.8-1.4-8.8-1.7
		c-0.9-0.3-1.8-3.8-1.3-6.2c0.5-2.4,1.4-6.6,1.7-7.8c0.3-1.2,0.8-5.7,1.1-9.1S157.6,93.5,157.6,93.5z"/>
</g>
</svg>
