<?xml version="1.0" encoding="utf-8"?>
<!-- Generator: Adobe Illustrator 19.2.1, SVG Export Plug-In . SVG Version: 6.00 Build 0)  -->
<svg version="1.1" id="Lag_1" xmlns="http://www.w3.org/2000/svg" xmlns:xlink="http://www.w3.org/1999/xlink" x="0px" y="0px"
	 viewBox="0 0 1895.6 341.9" style="enable-background:new 0 0 1895.6 341.9;" xml:space="preserve">
<style type="text/css">
	.st0{fill:#52A8B6;}
	.st1{fill:#5BB3C2;}
</style>
<g>
	<path class="st0" d="M-4.5,177.1c0-57.5,0-115-0.1-172.5C-4.6,1-3.9,0,0,0c631.8,0.1,1263.7,0.1,1895.5,0.1c0,13.8,0,27.7,0,41.5
		c0,30.5-0.1,61-0.2,91.5c-10.5,0.6-20.9-0.7-31.4-1c-10.6-0.3-21.3-0.3-31.9-0.7c-22.1-0.9-44.2-1.6-66.3-2.1
		c-26.1-0.6-52.2-1.3-78.3-2c-24.3-0.6-48.6-1.3-72.8-2c-23.8-0.7-47.6-1.3-71.3-2c-23.9-0.7-47.9-1.4-71.8-2
		c-20.8-0.5-41.6-1.9-62.4-1.2c-1.8,0.1-3.6-0.3-5.5-0.5c-15.3-1.3-30.6-0.6-45.9-1c-9.2-0.2-18.7,2.9-27.8,5.1
		c-12.1,3-24.4,4.9-36.6,7.4c-11.1,2.2-22.1,4.7-33.2,6.6c-15.2,2.6-30.2,6.4-45.4,9.2c-11.4,2.1-22.7,4.8-34.2,6.7
		c-15.1,2.5-29.9,6.2-44.9,9.3c-16.1,3.3-32.3,6.3-48.4,9.5c-17.7,3.6-35.4,7.3-53.2,10.8c-8.1,1.6-16.4,2.6-24.4,4.6
		c-11.3,2.8-22.8,4.7-34.1,7.1c-18.5,3.9-37.2,7.1-55.7,11c-9.8,2.1-19.5,4.3-29.6,4c-14.1-0.3-28.2-1.6-42.4-1.7
		c-29.6-0.4-59.2-1.9-88.8-3.1c-18.4-0.7-36.9-1.5-55.3-2c-26.8-0.7-53.5-2.6-80.3-3.1c-26.6-0.5-53.2-2-79.8-2.9
		c-18.8-0.7-37.6-1.5-56.3-2c-26.6-0.7-53.2-2.6-79.8-3c-26.8-0.4-53.5-1.5-80.3-2.9c-18.6-1-37.2-1.5-55.8-2
		c-26.6-0.7-53.2-2-79.8-3c-21.6-0.8-43.2-1.1-64.8-2.1c-15.4-0.7-30.9-1.3-46.3-1.9C52.1,179.1,23.8,178.8-4.5,177.1z"/>
	<path class="st1" d="M-4.5,177.1c28.2,1.7,56.5,2,84.8,3.2c15.4,0.6,30.9,1.2,46.3,1.9c21.6,1,43.2,1.3,64.8,2.1
		c26.6,1,53.2,2.3,79.8,3c18.6,0.5,37.3,1.1,55.8,2c26.8,1.4,53.5,2.5,80.3,2.9c26.6,0.4,53.2,2.4,79.8,3c18.8,0.5,37.6,1.3,56.3,2
		c26.6,1,53.2,2.4,79.8,2.9c26.8,0.5,53.5,2.4,80.3,3.1c18.4,0.4,36.9,1.3,55.3,2c29.6,1.1,59.1,2.7,88.8,3.1
		c14.1,0.2,28.2,1.4,42.4,1.7c10.1,0.2,19.8-2,29.6-4c18.5-3.9,37.2-7.1,55.7-11c11.4-2.4,22.8-4.2,34.1-7.1c8-2,16.3-3,24.4-4.6
		c17.7-3.5,35.4-7.3,53.2-10.8c16.1-3.2,32.3-6.3,48.4-9.5c15-3,29.8-6.8,44.9-9.3c11.5-1.9,22.8-4.6,34.2-6.7
		c15.2-2.8,30.2-6.6,45.4-9.2c11.1-1.9,22.2-4.4,33.2-6.6c12.2-2.5,24.5-4.4,36.6-7.4c9.2-2.3,18.6-5.4,27.8-5.1
		c15.3,0.4,30.6-0.3,45.9,1c1.8,0.2,3.6,0.5,5.5,0.5c20.8-0.7,41.6,0.7,62.4,1.2c23.9,0.6,47.9,1.3,71.8,2c23.8,0.7,47.6,1.3,71.3,2
		c24.3,0.7,48.6,1.4,72.8,2c26.1,0.7,52.2,1.4,78.3,2c22.1,0.5,44.2,1.2,66.3,2.1c10.7,0.4,21.3,0.5,31.9,0.7
		c10.5,0.3,20.9,1.6,31.4,1c0.1,2,0.2,4,0.2,6c0,36,0,72,0,108c0,6.3,0,6.1-6.4,5.7c-22.9-1.6-45.9-3.1-68.8-4.6
		c-38.1-2.5-76.1-4.9-114.2-7.4c-33.1-2.2-66.1-4.5-99.2-6.5c-15.3-0.9-30.6,1.8-45.8,2.9c-31.1,2.3-62.1,5-93.1,7.5
		c-34.7,2.8-69.4,5.7-104.1,8.5c-30.4,2.5-60.8,5-91.1,7.5c-34.7,2.8-69.4,5.7-104.1,8.5c-29.2,2.4-58.5,4.4-87.6,7.3
		c-46.6,4.6-93.1,9.8-139.6,14.6c-52.5,5.5-105,10.8-157.5,16.3c-65.6,6.8-131.2,13.8-196.8,20.6c-7.7,0.8-15.5,2.6-23.3,1.5
		c-24.9-3.4-49.8-6.9-74.7-10.3c-51.6-7.1-103.3-14.2-154.9-21.4c-51.8-7.2-103.5-14.6-155.4-21.5c-38.6-5.2-77.3-10-115.9-14.9
		c-22.5-2.8-45-5.5-67.4-8.2C-4.5,227.8-4.5,202.4-4.5,177.1z"/>
</g>
</svg>
