<?xml version="1.0" encoding="utf-8"?>
<!-- Generator: Adobe Illustrator 19.2.1, SVG Export Plug-In . SVG Version: 6.00 Build 0)  -->
<svg version="1.1" id="Layer_1" xmlns="http://www.w3.org/2000/svg" xmlns:xlink="http://www.w3.org/1999/xlink" x="0px" y="0px"
	 viewBox="0 0 101.5 222" style="enable-background:new 0 0 101.5 222;" xml:space="preserve">
<style type="text/css">
	.st0{fill:#FFFFFF;}
</style>
<rect x="46.1" y="35.3" class="st0" width="8.6" height="21.6"/>
<g>
	<polygon class="st0" points="63.5,178.2 63.5,170.3 37.2,170.3 37.2,178.2 22.5,178.2 36.4,197.9 50.4,217.6 64.3,197.9 
		78.3,178.2 	"/>
	<path class="st0" d="M63.2,162.5H37.6c-0.2,0-0.3,0.1-0.3,0.3v4.5c0,0.2,0.1,0.3,0.3,0.3h25.7c0.2,0,0.3-0.1,0.3-0.3v-4.5
		C63.5,162.6,63.4,162.5,63.2,162.5z"/>
	<path class="st0" d="M37.6,159.9h25.7c0.2,0,0.3-0.1,0.3-0.3v-4.5c0-0.2-0.1-0.3-0.3-0.3H37.6c-0.2,0-0.3,0.1-0.3,0.3v4.5
		C37.2,159.8,37.4,159.9,37.6,159.9z"/>
	<path class="st0" d="M37.6,152.3h25.7c0.2,0,0.3-0.1,0.3-0.3v-4.5c0-0.2-0.1-0.3-0.3-0.3H37.6c-0.2,0-0.3,0.1-0.3,0.3v4.5
		C37.2,152.1,37.4,152.3,37.6,152.3z"/>
</g>
<path class="st0" d="M53.9,3.2h-7C22.8,3.2,3.2,22.8,3.2,46.9v82.5c0,20,13.4,36.8,31.8,42v-4.2c-16-5.1-27.8-20.2-27.8-37.8V46.9
	c0-21.8,17.9-39.7,39.7-39.7h7c21.8,0,39.7,17.9,39.7,39.7v82.5c0,17.6-11.6,32.6-27.6,37.8v4.2c18.2-5.3,31.6-22.1,31.6-42V46.9
	C97.6,22.8,78,3.2,53.9,3.2z"/>
<path class="st0" d="M11.2,129.4V46.9c0-19.7,16-35.7,35.7-35.7h7c19.7,0,35.7,16,35.7,35.7v82.5c0,15.4-9.8,28.6-23.6,33.6v4.2
	c16-5.1,27.6-20.2,27.6-37.8V46.9c0-21.8-17.9-39.7-39.7-39.7h-7C25.1,7.2,7.2,25.1,7.2,46.9v82.5c0,17.7,11.7,32.7,27.8,37.8v-4.2
	C21.1,158.1,11.2,144.9,11.2,129.4z"/>
</svg>
