<?xml version="1.0" encoding="utf-8"?>
<!-- Generator: Adobe Illustrator 18.0.0, SVG Export Plug-In . SVG Version: 6.00 Build 0)  -->
<!DOCTYPE svg PUBLIC "-//W3C//DTD SVG 1.1//EN" "http://www.w3.org/Graphics/SVG/1.1/DTD/svg11.dtd">
<svg version="1.1" id="Layer_1" xmlns="http://www.w3.org/2000/svg" xmlns:xlink="http://www.w3.org/1999/xlink" x="0px" y="0px"
	 viewBox="0 0 387.3 289.9" enable-background="new 0 0 387.3 289.9" xml:space="preserve">
<g>
	<path fill="#134395" d="M127.8,152.3c0,0-52.8-34.8-67.6-39.1c-12-3.4-35.7,3.9-33.8,13.4c2,9.5,52.4,57.1,55.1,59.3
		c2.7,2.2,19.4,17,37,11.1c10.5-3.5,17.1-29.6,17.1-29.6L127.8,152.3z"/>
	<path fill="#F6F6F6" d="M251.1,120.5c0,0-89.6-17.1-123.7-22.4c-8.6-1.3-38,1.8-28.8,17.6c3.9,6.8,62.3,36.7,62.3,36.7L251.1,120.5
		z"/>
	<path fill="#FFFFFF" d="M83.9,188.8c1.5,1.2,3.1,2.3,4.6,3.3c5.8,3.8,12.3,6.5,19.3,6.9c2.7,0.2,5.3,0,7.9-0.3
		c2.8-0.4,5.5-1.2,8.2-2l183.2-50.4c14.2-4.2,28.1-18.8,22.5-39.1c-5.6-20.3-36.9-24.6-54.5-19.3l-165.7,60.5
		c-14.2,4.2-49.6,17.7-41.9,25.2c2.1,2.6,4.9,5,7.5,7.4c1.7,1.6,3.6,3.3,5.4,4.9C81.5,186.9,82.7,187.9,83.9,188.8z"/>
	<path fill="#F6F6F6" d="M255.4,134.8c0,0-69.5,76.9-85.7,87.1c-15.2,9.6-28.5,13.4-35.5,2.8c-5.6-8.4,21.8-65.1,21.8-65.1
		L255.4,134.8z"/>
	<g>
		<g>
			<g>
				
					<linearGradient id="SVGID_1_" gradientUnits="userSpaceOnUse" x1="-162.9102" y1="417.2281" x2="-158.1138" y2="373.323" gradientTransform="matrix(-0.9591 0.2832 0.2832 0.9591 -12.9787 -217.9711)">
					<stop  offset="0.2988" style="stop-color:#FFFFFF"/>
					<stop  offset="0.5171" style="stop-color:#DCEBFA"/>
					<stop  offset="0.64" style="stop-color:#BAD9F3"/>
					<stop  offset="0.81" style="stop-color:#FFFFFF"/>
				</linearGradient>
				<circle fill="url(#SVGID_1_)" cx="253.4" cy="116.8" r="7.1"/>
			</g>
			<g>
				
					<linearGradient id="SVGID_2_" gradientUnits="userSpaceOnUse" x1="-159.8929" y1="419.7145" x2="-159.8929" y2="391.485" gradientTransform="matrix(-0.9591 0.2832 0.2832 0.9591 -12.9787 -217.9711)">
					<stop  offset="0" style="stop-color:#DCEBFA"/>
					<stop  offset="0.44" style="stop-color:#BAD9F3"/>
					<stop  offset="1" style="stop-color:#36A9E1"/>
				</linearGradient>
				<path fill="url(#SVGID_2_)" d="M246.2,120.1c1.1,3.7,5,5.9,8.8,4.8c3.7-1.1,5.9-5,4.8-8.8c-1.1-3.7-5-5.9-8.8-4.8
					C247.2,112.4,245.1,116.3,246.2,120.1z"/>
			</g>
			<g opacity="0.2">
				<path fill="#FFFFFF" d="M251,111.3c2.7-0.8,5.4,0.1,7.2,2c-0.4,2.6-2.3,4.8-5,5.6c-2.7,0.8-5.4-0.1-7.2-2
					C246.5,114.3,248.3,112.1,251,111.3z"/>
			</g>
		</g>
		<g>
			<g>
				
					<linearGradient id="SVGID_3_" gradientUnits="userSpaceOnUse" x1="-136.9796" y1="417.6519" x2="-132.1832" y2="373.7468" gradientTransform="matrix(-0.9591 0.2832 0.2832 0.9591 -12.9787 -217.9711)">
					<stop  offset="0.2988" style="stop-color:#FFFFFF"/>
					<stop  offset="0.5171" style="stop-color:#DCEBFA"/>
					<stop  offset="0.64" style="stop-color:#BAD9F3"/>
					<stop  offset="0.81" style="stop-color:#FFFFFF"/>
				</linearGradient>
				<circle fill="url(#SVGID_3_)" cx="228.6" cy="124.5" r="7.1"/>
			</g>
			<g>
				
					<linearGradient id="SVGID_4_" gradientUnits="userSpaceOnUse" x1="-133.9624" y1="420.1383" x2="-133.9624" y2="391.9088" gradientTransform="matrix(-0.9591 0.2832 0.2832 0.9591 -12.9787 -217.9711)">
					<stop  offset="0" style="stop-color:#DCEBFA"/>
					<stop  offset="0.44" style="stop-color:#BAD9F3"/>
					<stop  offset="1" style="stop-color:#36A9E1"/>
				</linearGradient>
				<path fill="url(#SVGID_4_)" d="M221.4,127.8c1.1,3.7,5,5.9,8.8,4.8c3.7-1.1,5.9-5,4.8-8.8c-1.1-3.7-5-5.9-8.8-4.8
					C222.5,120.2,220.3,124.1,221.4,127.8z"/>
			</g>
			<g opacity="0.2">
				<path fill="#FFFFFF" d="M226.2,119.1c2.7-0.8,5.4,0.1,7.2,2c-0.4,2.6-2.3,4.8-5,5.6c-2.7,0.8-5.4-0.1-7.2-2
					C221.7,122.1,223.6,119.9,226.2,119.1z"/>
			</g>
		</g>
		<g>
			<g>
				
					<linearGradient id="SVGID_5_" gradientUnits="userSpaceOnUse" x1="-110.8366" y1="418.795" x2="-106.0402" y2="374.8899" gradientTransform="matrix(-0.9591 0.2832 0.2832 0.9591 -12.9787 -217.9711)">
					<stop  offset="0.2988" style="stop-color:#FFFFFF"/>
					<stop  offset="0.5171" style="stop-color:#DCEBFA"/>
					<stop  offset="0.64" style="stop-color:#BAD9F3"/>
					<stop  offset="0.81" style="stop-color:#FFFFFF"/>
				</linearGradient>
				<circle fill="url(#SVGID_5_)" cx="203.9" cy="133" r="7.1"/>
			</g>
			<g>
				
					<linearGradient id="SVGID_6_" gradientUnits="userSpaceOnUse" x1="-107.8194" y1="421.2814" x2="-107.8194" y2="393.0518" gradientTransform="matrix(-0.9591 0.2832 0.2832 0.9591 -12.9787 -217.9711)">
					<stop  offset="0" style="stop-color:#DCEBFA"/>
					<stop  offset="0.44" style="stop-color:#BAD9F3"/>
					<stop  offset="1" style="stop-color:#36A9E1"/>
				</linearGradient>
				<path fill="url(#SVGID_6_)" d="M196.7,136.3c1.1,3.7,5,5.9,8.8,4.8c3.7-1.1,5.9-5,4.8-8.8c-1.1-3.7-5-5.9-8.8-4.8
					C197.7,128.7,195.6,132.6,196.7,136.3z"/>
			</g>
			<g opacity="0.2">
				<path fill="#FFFFFF" d="M201.5,127.6c2.7-0.8,5.4,0.1,7.2,2c-0.4,2.6-2.3,4.8-5,5.6c-2.7,0.8-5.4-0.1-7.2-2
					C197,130.6,198.8,128.4,201.5,127.6z"/>
			</g>
		</g>
		<g>
			<g>
				
					<linearGradient id="SVGID_7_" gradientUnits="userSpaceOnUse" x1="-82.3942" y1="419.7804" x2="-77.5979" y2="375.8753" gradientTransform="matrix(-0.9591 0.2832 0.2832 0.9591 -12.9787 -217.9711)">
					<stop  offset="0.2988" style="stop-color:#FFFFFF"/>
					<stop  offset="0.5171" style="stop-color:#DCEBFA"/>
					<stop  offset="0.64" style="stop-color:#BAD9F3"/>
					<stop  offset="0.81" style="stop-color:#FFFFFF"/>
				</linearGradient>
				<circle fill="url(#SVGID_7_)" cx="176.9" cy="142" r="7.1"/>
			</g>
			<g>
				
					<linearGradient id="SVGID_8_" gradientUnits="userSpaceOnUse" x1="-79.377" y1="422.2668" x2="-79.377" y2="394.0372" gradientTransform="matrix(-0.9591 0.2832 0.2832 0.9591 -12.9787 -217.9711)">
					<stop  offset="0" style="stop-color:#DCEBFA"/>
					<stop  offset="0.44" style="stop-color:#BAD9F3"/>
					<stop  offset="1" style="stop-color:#36A9E1"/>
				</linearGradient>
				<path fill="url(#SVGID_8_)" d="M169.7,145.3c1.1,3.7,5,5.9,8.8,4.8c3.7-1.1,5.9-5,4.8-8.8c-1.1-3.7-5-5.9-8.8-4.8
					C170.7,137.7,168.6,141.6,169.7,145.3z"/>
			</g>
			<g opacity="0.2">
				<path fill="#FFFFFF" d="M174.5,136.6c2.7-0.8,5.4,0.1,7.2,2c-0.4,2.6-2.3,4.8-5,5.6c-2.7,0.8-5.4-0.1-7.2-2
					C170,139.6,171.8,137.4,174.5,136.6z"/>
			</g>
		</g>
		<g>
			<g>
				
					<linearGradient id="SVGID_9_" gradientUnits="userSpaceOnUse" x1="-53.641" y1="420.9359" x2="-48.8444" y2="377.0286" gradientTransform="matrix(-0.9591 0.2832 0.2832 0.9591 -12.9787 -217.9711)">
					<stop  offset="0.2988" style="stop-color:#FFFFFF"/>
					<stop  offset="0.5171" style="stop-color:#DCEBFA"/>
					<stop  offset="0.64" style="stop-color:#BAD9F3"/>
					<stop  offset="0.81" style="stop-color:#FFFFFF"/>
				</linearGradient>
				<path fill="url(#SVGID_9_)" d="M142.8,153.3c1.1,3.7,5,5.9,8.8,4.8c3.7-1.1,5.9-5,4.8-8.8c-1.1-3.7-5-5.9-8.8-4.8
					C143.9,145.6,141.7,149.5,142.8,153.3z"/>
			</g>
			<g>
				
					<linearGradient id="SVGID_10_" gradientUnits="userSpaceOnUse" x1="-50.6236" y1="423.4215" x2="-50.6236" y2="395.1913" gradientTransform="matrix(-0.9591 0.2832 0.2832 0.9591 -12.9787 -217.9711)">
					<stop  offset="0" style="stop-color:#DCEBFA"/>
					<stop  offset="0.44" style="stop-color:#BAD9F3"/>
					<stop  offset="1" style="stop-color:#36A9E1"/>
				</linearGradient>
				<path fill="url(#SVGID_10_)" d="M142.4,154.6c1.1,3.7,5,5.9,8.8,4.8c3.7-1.1,5.9-5,4.8-8.8c-1.1-3.7-5-5.9-8.8-4.8
					C143.5,146.9,141.3,150.8,142.4,154.6z"/>
			</g>
			<g opacity="0.2">
				<path fill="#FFFFFF" d="M147.2,145.8c2.7-0.8,5.4,0.1,7.2,2c-0.4,2.6-2.3,4.8-5,5.6c-2.7,0.8-5.4-0.1-7.2-2
					C142.7,148.8,144.6,146.6,147.2,145.8z"/>
			</g>
		</g>
	</g>
	
		<linearGradient id="SVGID_11_" gradientUnits="userSpaceOnUse" x1="-250.989" y1="418.9815" x2="-186.7035" y2="389.4252" gradientTransform="matrix(-0.9591 0.2832 0.2832 0.9591 -12.9787 -217.9711)">
		<stop  offset="0" style="stop-color:#DCEBFA"/>
		<stop  offset="0.44" style="stop-color:#BAD9F3"/>
		<stop  offset="1" style="stop-color:#36A9E1"/>
	</linearGradient>
	<path fill="url(#SVGID_11_)" d="M282.6,105.2c0,0,10-0.9,20.8-3.6c4.7-1.2,13.2-5.7,13.2-5.7c9.5,4.8,9.9,15.4,10.1,16.8
		c-4.1,3.6-12.4,7.8-23.5,6.3C297.8,118.3,282.6,105.2,282.6,105.2z"/>
</g>
<g>
	<path fill="#FDCB00" d="M63.4,146.8c-0.6,0.3-1,0.9-1,1.6c-0.1,0.7,0.1,1.5,0.6,2.4c1,1.9,2.3,2.4,3.7,1.6c0.4-0.2,0.8-0.5,1.2-0.9
		c0.3-0.3,0.7-0.7,1-1.1l1.2,2.2c-0.6,0.8-1.4,1.5-2.5,2.1c-1.5,0.8-2.8,1-4.1,0.6c-1.3-0.4-2.3-1.4-3.2-3.1c-0.6-1-0.9-2-0.9-3
		c0-1,0.2-1.9,0.7-2.7s1.2-1.5,2.2-2c1.1-0.6,2.2-0.9,3.4-1l0.3,2.5c-0.5,0-0.9,0.1-1.3,0.2C64.2,146.4,63.8,146.5,63.4,146.8z"/>
	<path fill="#FDCB00" d="M75.6,141.5c0.6,1.1,0.7,2.1,0.4,3.1c-0.3,0.9-1.1,1.8-2.3,2.4l-0.7,0.4l1.8,3.2l-2.6,1.5l-5.4-9.8l3.4-1.9
		c1.2-0.7,2.3-0.9,3.2-0.7S75,140.5,75.6,141.5z M71.8,145.2l0.5-0.3c0.4-0.2,0.7-0.5,0.8-0.9c0.1-0.4,0.1-0.7-0.2-1.1
		c-0.4-0.7-0.9-0.8-1.6-0.4l-0.7,0.4L71.8,145.2z"/>
	<path fill="#FDCB00" d="M89.2,142.7l-2.7,1.5l-2.2-4l-3.1,1.7l2.2,4l-2.7,1.5l-5.4-9.8l2.7-1.5l2,3.6l3.1-1.7l-2-3.6l2.7-1.5
		L89.2,142.7z"/>
</g>
</svg>
